<?xml version="1.0" encoding="UTF-8" standalone="no"?>
<!-- Created with Inkscape (http://www.inkscape.org/) -->

<svg
   xmlns:dc="http://purl.org/dc/elements/1.1/"
   xmlns:cc="http://creativecommons.org/ns#"
   xmlns:rdf="http://www.w3.org/1999/02/22-rdf-syntax-ns#"
   xmlns:svg="http://www.w3.org/2000/svg"
   xmlns="http://www.w3.org/2000/svg"
   xmlns:sodipodi="http://sodipodi.sourceforge.net/DTD/sodipodi-0.dtd"
   xmlns:inkscape="http://www.inkscape.org/namespaces/inkscape"
   width="433.70517mm"
   height="162.88902mm"
   viewBox="0 0 433.70518 162.88903"
   version="1.1"
   id="svg8"
   inkscape:version="0.92.4 5da689c313, 2019-01-14"
   sodipodi:docname="golf_putting_v2.svg">
  <defs
     id="defs2" />
  <sodipodi:namedview
     id="base"
     pagecolor="#ffffff"
     bordercolor="#666666"
     borderopacity="1.0"
     inkscape:pageopacity="0.0"
     inkscape:pageshadow="2"
     inkscape:zoom="0.73359209"
     inkscape:cx="923.18805"
     inkscape:cy="191.57413"
     inkscape:document-units="mm"
     inkscape:current-layer="layer1"
     showgrid="false"
     inkscape:window-width="1916"
     inkscape:window-height="1041"
     inkscape:window-x="0"
     inkscape:window-y="18"
     inkscape:window-maximized="0"
     fit-margin-top="1"
     fit-margin-left="1"
     fit-margin-right="1"
     fit-margin-bottom="1" />
  <metadata
     id="metadata5">
    <rdf:RDF>
      <cc:Work
         rdf:about="">
        <dc:format>image/svg+xml</dc:format>
        <dc:type
           rdf:resource="http://purl.org/dc/dcmitype/StillImage" />
        <dc:title></dc:title>
      </cc:Work>
    </rdf:RDF>
  </metadata>
  <g
     inkscape:label="Layer 1"
     inkscape:groupmode="layer"
     id="layer1"
     transform="translate(-284.40282,-133.31734)">
    <flowRoot
       xml:space="preserve"
       id="flowRoot1862"
       style="font-style:normal;font-weight:normal;font-size:24px;line-height:1.25;font-family:sans-serif;letter-spacing:0px;word-spacing:0px;fill:#000000;fill-opacity:1;stroke:none"><flowRegion
         id="flowRegion1864"><rect
           id="rect1866"
           width="877.14575"
           height="950.40186"
           x="1646.3351"
           y="249.57391" /></flowRegion><flowPara
         id="flowPara1868" /></flowRoot>    <circle
       r="31.725122"
       cy="214.76181"
       cx="317.40683"
       id="circle4526"
       style="opacity:1;fill:none;fill-opacity:1;stroke:#010000;stroke-width:0.55775398;stroke-miterlimit:4;stroke-dasharray:none;stroke-opacity:1" />
    <circle
       style="opacity:1;fill:none;fill-opacity:1;stroke:#000d00;stroke-width:0.375;stroke-miterlimit:4;stroke-dasharray:none;stroke-opacity:1"
       id="path14"
       cx="636.66345"
       cy="214.76186"
       r="80.257011" />
    <path
       style="fill:none;stroke:#000000;stroke-width:0.39687496px;stroke-linecap:butt;stroke-linejoin:miter;stroke-opacity:1"
       d="m 317.15666,214.83231 319.42622,0.0957"
       id="path857"
       inkscape:connector-curvature="0" />
    <text
       xml:space="preserve"
       style="font-style:normal;font-weight:normal;font-size:15.34010696px;line-height:1.25;font-family:sans-serif;letter-spacing:0px;word-spacing:0px;fill:#000000;fill-opacity:1;stroke:none;stroke-width:0.63917112"
       x="628.56586"
       y="174.48927"
       id="text890"><tspan
         sodipodi:role="line"
         id="tspan888"
         x="628.56586"
         y="174.48927"
         style="stroke-width:0.63917112">R</tspan></text>
    <text
       xml:space="preserve"
       style="font-style:normal;font-variant:normal;font-weight:normal;font-stretch:normal;font-size:15.34010792px;line-height:1.25;font-family:sans-serif;-inkscape-font-specification:'sans-serif, Normal';font-variant-ligatures:normal;font-variant-caps:normal;font-variant-numeric:normal;font-feature-settings:normal;text-align:start;letter-spacing:0px;word-spacing:0px;writing-mode:lr-tb;text-anchor:start;fill:#000000;fill-opacity:1;stroke:none;stroke-width:0.63917112"
       x="469.77216"
       y="228.8591"
       id="text894"><tspan
         sodipodi:role="line"
         id="tspan1747"
         x="469.77216"
         y="228.8591"
         style="stroke-width:0.63917112">d</tspan></text>
    <text
       xml:space="preserve"
       style="font-style:normal;font-weight:normal;font-size:15.34010696px;line-height:1.25;font-family:sans-serif;letter-spacing:0px;word-spacing:0px;fill:#000000;fill-opacity:1;stroke:none;stroke-width:0.63917112"
       x="330.01648"
       y="225.55923"
       id="text902"><tspan
         sodipodi:role="line"
         id="tspan900"
         x="330.01648"
         y="225.55923"
         style="stroke-width:0.63917112">r</tspan></text>
    <path
       style="fill:none;stroke:#000000;stroke-width:0.39687496px;stroke-linecap:butt;stroke-linejoin:miter;stroke-opacity:1"
       d="M 317.15666,214.83231 616.63139,136.94016"
       id="path1493"
       inkscape:connector-curvature="0" />
    <path
       style="fill:none;stroke:#000000;stroke-width:0.39687496px;stroke-linecap:butt;stroke-linejoin:miter;stroke-opacity:1"
       d="M 636.58288,214.92801 616.63139,136.94016"
       id="path1495"
       inkscape:connector-curvature="0" />
    <g
       id="g1840"
       transform="matrix(1.4648896,0,0,1.4648895,282.88616,-126.67566)">
      <g
         word-spacing="normal"
         letter-spacing="normal"
         font-size-adjust="none"
         font-stretch="normal"
         font-weight="normal"
         font-variant="normal"
         font-style="normal"
         stroke-miterlimit="10.433"
         xml:space="preserve"
         transform="matrix(0.2326986,0,0,-0.2326986,-40.722255,325.27888)"
         id="content"
         style="font-style:normal;font-variant:normal;font-weight:normal;font-stretch:normal;letter-spacing:normal;word-spacing:normal;text-anchor:start;fill:none;fill-opacity:1;fill-rule:evenodd;stroke:#000000;stroke-linecap:butt;stroke-linejoin:miter;stroke-miterlimit:10.43299961;stroke-dasharray:none;stroke-dashoffset:0;stroke-opacity:1"><path
           id="path1827"
           d="m 478.19,431.11 v 0.31 l -0.01,0.34 -0.02,0.36 -0.02,0.37 -0.03,0.39 -0.04,0.39 -0.04,0.41 -0.06,0.41 -0.07,0.42 -0.07,0.43 -0.09,0.42 -0.1,0.43 -0.12,0.42 -0.12,0.42 -0.14,0.41 -0.16,0.41 -0.17,0.4 -0.18,0.38 -0.2,0.37 -0.22,0.36 -0.23,0.34 -0.25,0.32 -0.28,0.3 -0.29,0.27 -0.31,0.25 -0.16,0.12 -0.17,0.1 -0.17,0.1 -0.18,0.1 -0.18,0.08 -0.19,0.08 -0.19,0.07 -0.2,0.06 -0.21,0.05 -0.21,0.05 -0.22,0.03 -0.22,0.02 -0.23,0.02 h -0.23 l -0.05,-1.09 c 2.44,0 2.73,-3.19 2.73,-6.03 0,-2.44 -0.39,-4.99 -1.59,-9.92 h -10.41 c 0.85,3.2 1.85,7.18 3.83,10.72 1.36,2.43 3.19,5.23 5.44,5.23 l 0.05,1.09 c -6.92,0 -14.6,-14.04 -14.6,-25.45 0,-4.69 1.44,-10.22 5.99,-10.22 v 1.1 c -1.66,0 -2.71,1.45 -2.71,6.07 0,2.1 0.3,4.99 1.6,9.86 h 10.37 c -0.54,-2.28 -1.59,-6.51 -3.5,-10.11 -1.73,-3.39 -3.62,-5.82 -5.76,-5.82 v -1.1 c 7.01,0 14.59,14.3 14.59,25.46 z"
           inkscape:connector-curvature="0"
           style="fill:#000000;stroke-width:0" /><path
           id="path1829"
           d="m 492.47,412.67 -0.06,-0.03 -0.05,-0.03 -0.06,-0.03 -0.05,-0.03 -0.05,-0.03 -0.05,-0.04 -0.05,-0.04 -0.05,-0.03 -0.04,-0.04 -0.04,-0.04 -0.04,-0.05 -0.04,-0.04 -0.04,-0.04 -0.03,-0.05 -0.04,-0.05 -0.03,-0.05 -0.03,-0.04 -0.03,-0.06 -0.02,-0.05 -0.03,-0.05 -0.02,-0.05 -0.02,-0.06 -0.02,-0.06 -0.02,-0.05 -0.01,-0.06 -0.01,-0.06 -0.02,-0.06 v -0.06 l -0.01,-0.06 -0.01,-0.07 v -0.06 -0.06 c 0,-0.96 0.66,-1.64 1.64,-1.64 0.94,0 1.67,0.59 1.67,1.7 0,3.11 -4.84,3.11 -5.83,3.11 -5.21,0 -8.45,-4.02 -8.45,-8.02 0,-4.39 3.72,-7.87 8.28,-7.87 5.21,0 6.42,4.11 6.42,4.53 0,0.41 -0.45,0.41 -0.59,0.41 -0.45,0 -0.48,-0.1 -0.67,-0.6 -0.77,-2.15 -2.61,-3.23 -4.74,-3.23 -2.4,0 -5.53,1.78 -5.53,6.79 0,4.43 2.16,6.86 5.39,6.86 0.46,0 2.13,0 3.38,-0.51 z"
           inkscape:connector-curvature="0"
           style="fill:#000000;stroke-width:0" /><path
           id="path1831"
           d="m 503.62,406.7 v 0.28 l 0.01,0.28 0.02,0.28 0.03,0.28 0.04,0.28 0.04,0.29 0.06,0.28 0.06,0.28 0.07,0.27 0.08,0.28 0.09,0.27 0.1,0.26 0.11,0.26 0.12,0.25 0.12,0.25 0.14,0.24 0.15,0.23 0.15,0.22 0.17,0.21 0.18,0.19 0.18,0.19 0.2,0.18 0.2,0.16 0.22,0.15 0.23,0.13 0.24,0.12 0.25,0.1 0.26,0.09 0.27,0.06 0.28,0.05 0.29,0.03 0.31,0.01 c -0.31,-0.25 -0.59,-0.7 -0.59,-1.25 0,-1.15 0.9,-1.61 1.56,-1.61 0.84,0 1.61,0.57 1.61,1.61 0,1.19 -1.13,2.22 -2.77,2.22 -1.73,0 -3.65,-1.08 -4.7,-3.72 h -0.03 v 3.72 l -4.99,-0.37 v -1.25 c 2.35,0 2.63,-0.25 2.63,-1.96 v -9.03 c 0,-1.5 -0.36,-1.5 -2.63,-1.5 v -1.25 c 0.17,0 2.55,0.14 3.97,0.14 1.5,0 3.05,-0.08 4.53,-0.14 v 1.25 h -0.68 c -2.58,0 -2.58,0.39 -2.58,1.58 z"
           inkscape:connector-curvature="0"
           style="fill:#000000;stroke-width:0" /><path
           id="path1833"
           d="m 519.64,420.26 -0.01,0.1 v 0.09 l -0.01,0.1 -0.02,0.09 -0.02,0.09 -0.03,0.09 -0.03,0.09 -0.03,0.09 -0.04,0.09 -0.04,0.08 -0.05,0.08 -0.05,0.09 -0.06,0.07 -0.06,0.08 -0.06,0.07 -0.06,0.07 -0.07,0.07 -0.08,0.07 -0.07,0.06 -0.08,0.06 -0.08,0.05 -0.09,0.05 -0.09,0.05 -0.09,0.04 -0.09,0.04 -0.1,0.03 -0.1,0.03 -0.1,0.02 -0.1,0.02 -0.11,0.01 -0.1,0.01 -0.12,0.01 c -1.04,0 -1.98,-0.83 -1.98,-1.99 0,-1.25 1.02,-2.01 1.98,-2.01 1.13,0 2.04,0.86 2.04,2.01 z"
           inkscape:connector-curvature="0"
           style="fill:#000000;stroke-width:0" /><path
           id="path1835"
           d="m 514.34,413.75 v -1.25 c 2.19,0 2.5,-0.22 2.5,-1.93 v -9.06 c 0,-1.5 -0.34,-1.5 -2.61,-1.5 v -1.25 c 0.06,0 2.5,0.14 3.91,0.14 1.21,0 2.46,-0.03 3.68,-0.14 v 1.25 c -2.01,0 -2.37,0 -2.37,1.47 v 12.64 z"
           inkscape:connector-curvature="0"
           style="fill:#000000;stroke-width:0" /><path
           id="path1837"
           d="m 530.55,412.53 h 5.44 v 1.25 h -5.44 v 6.4 h -1.18 c -0.03,-3.12 -1.46,-6.57 -4.8,-6.68 v -0.97 h 3.23 v -9.41 c 0,-3.91 2.93,-4.7 4.88,-4.7 2.34,0 3.94,1.98 3.94,4.73 v 1.92 h -1.19 v -1.89 c 0,-2.36 -1.11,-3.65 -2.47,-3.65 -2.41,0 -2.41,2.92 -2.41,3.56 z"
           inkscape:connector-curvature="0"
           style="fill:#000000;stroke-width:0" /></g>    </g>
  </g>
</svg>
